<svg width="618" height="576" viewBox="0 0 618 576" fill="none" xmlns="http://www.w3.org/2000/svg">
<path fill-rule="evenodd" clip-rule="evenodd" d="M300.177 4.67203C326.227 -16.0694 357.395 37.7173 382.95 59.0653C404.4 76.9841 422.707 97.7749 438.899 120.557C453.389 140.945 453.083 171.951 473.476 186.434C514.677 215.696 586.956 200.141 612.417 243.793C631.744 276.927 596.403 322.901 568.308 349.017C538.715 376.524 469.564 352.061 455.282 389.856C433.526 447.428 538.683 541.206 484.589 570.561C428.667 600.908 386.647 491.713 334.341 455.487C314.961 442.065 293.318 413.232 272.022 423.343C212.325 451.688 186.594 580.169 125.67 554.566C69.5262 530.971 193.999 428.893 161.972 377.095C133.747 331.445 31.9945 402.65 3.587 357.114C-19.9024 319.461 79.4744 296.837 84.3882 252.731C89.1711 209.8 28.9967 180.426 28.0831 137.24C27.2425 97.5 40.1388 26.9603 79.6949 30.8689C152.887 38.1011 183.395 168.481 256.431 159.803C310.241 153.41 257.785 38.4255 300.177 4.67203Z" fill="url(#paint0_linear_241_13)" fill-opacity="0.5"/>
<defs>
<linearGradient id="paint0_linear_241_13" x1="308.974" y1="0" x2="308.974" y2="575.825" gradientUnits="userSpaceOnUse">
<stop stop-color="#2563EB"/>
<stop offset="1" stop-color="#153885"/>
</linearGradient>
</defs>
</svg>
